<svg id="Capa_1" enable-background="new 0 0 512 512" height="512" viewBox="0 0 512 512" width="512" xmlns="http://www.w3.org/2000/svg"><path d="m228.192 512v-51.6l-30.032-6.673v58.273z" fill="#878b91"/><path d="m313.84 512v-58.273l-30.032 6.673v51.6z" fill="#878b91"/><path d="m98.051 44.287c0-12.206 8.073-22.941 19.808-26.302 25.308-7.249 73.672-17.985 138.141-17.985 66.183 0 113.615 10.576 138.344 17.822 11.637 3.41 19.605 14.117 19.605 26.242v337.617c0 12.206-8.073 22.941-19.808 26.302-25.308 7.249-73.671 17.985-138.141 17.985-66.183 0-113.615-10.576-138.344-17.822-11.637-3.41-19.605-14.117-19.605-26.242z" fill="#e2faff"/><path d="m394.344 17.822c-24.729-7.246-72.161-17.822-138.344-17.822-5.706 0-11.279.088-16.728.246 57.197 1.619 98.555 10.977 121.076 17.576 11.637 3.41 19.605 14.117 19.605 26.242v337.617c0 12.206-8.073 22.941-19.808 26.302-23.068 6.607-65.298 16.108-121.412 17.738 5.607.159 11.359.246 17.268.246 64.469 0 112.833-10.736 138.141-17.985 11.735-3.361 19.808-14.097 19.808-26.302v-337.616c-.001-12.125-7.969-22.832-19.606-26.242z" fill="#cbf4ff"/><path d="m366.421 404.627v35.374c0 7.691-5.053 14.482-12.435 16.646-17.268 5.062-51.686 12.983-97.987 12.983-47.464 0-81.133-7.781-98.024-12.847-7.355-2.206-12.397-8.958-12.397-16.636v-35.52z" fill="#82d5f2"/><path d="m332.425 404.627v35.374c0 7.691-5.053 14.483-12.435 16.646-15.115 4.431-43.371 11.052-81.234 12.634 5.526.225 11.275.349 17.243.349 46.301 0 80.719-7.921 97.987-12.982 7.382-2.164 12.435-8.955 12.435-16.646v-35.374h-33.996z" fill="#67c6e4"/><ellipse cx="256" cy="128.218" fill="#82d5f2" rx="51.377" ry="51.371"/><path d="m255.483 136.202c-1.977 0-3.955-.755-5.464-2.264-3.017-3.017-3.017-7.909.001-10.927l15.491-15.489c3.018-3.018 7.909-3.017 10.927.001 3.017 3.017 3.017 7.909-.001 10.927l-15.491 15.489c-1.508 1.509-3.486 2.263-5.463 2.263z" fill="#e7eff9"/><path d="m98.051 309.694v72.21c0 12.125 7.968 22.832 19.605 26.242 24.729 7.246 72.161 17.822 138.344 17.822 64.469 0 112.833-10.736 138.141-17.985 11.735-3.361 19.808-14.097 19.808-26.302v-71.987z" fill="#baeefc"/><path d="m379.953 309.694v71.987c0 12.206-8.073 22.941-19.808 26.302-23.068 6.607-65.298 16.108-121.412 17.738 5.607.159 11.359.246 17.268.246 64.469 0 112.833-10.736 138.141-17.985 11.735-3.361 19.808-14.097 19.808-26.302v-71.987h-33.997z" fill="#a2e1f8"/><path d="m202.3 370.082c9.943 0 9.96-15.453 0-15.453-9.944.001-9.96 15.453 0 15.453z" fill="#3cd6e7"/><path d="m256 370.082c9.943 0 9.96-15.453 0-15.453-9.943.001-9.96 15.453 0 15.453z" fill="#878b91"/><path d="m309.7 370.082c9.943 0 9.96-15.453 0-15.453-9.943.001-9.959 15.453 0 15.453z" fill="#cc414d"/></svg>